<svg xmlns="http://www.w3.org/2000/svg" width="1180" height="110"><g transform="translate(30, 10)"><g class="axis axis--x" transform="translate(0,70)" fill="none" font-size="10" font-family="sans-serif" text-anchor="middle"><path class="domain" stroke="#000" d="M0.5,6V0.5H1120.5V6"/><g class="tick" opacity="1" transform="translate(0.5,0)"><line stroke="#000" y2="6"/><text fill="#000" y="9" dy="0.71em">0</text></g><g class="tick" opacity="1" transform="translate(70.5,0)"><line stroke="#000" y2="6"/><text fill="#000" y="9" dy="0.71em">10</text></g><g class="tick" opacity="1" transform="translate(140.5,0)"><line stroke="#000" y2="6"/><text fill="#000" y="9" dy="0.71em">20</text></g><g class="tick" opacity="1" transform="translate(210.5,0)"><line stroke="#000" y2="6"/><text fill="#000" y="9" dy="0.71em">30</text></g><g class="tick" opacity="1" transform="translate(280.5,0)"><line stroke="#000" y2="6"/><text fill="#000" y="9" dy="0.71em">40</text></g><g class="tick" opacity="1" transform="translate(350.5,0)"><line stroke="#000" y2="6"/><text fill="#000" y="9" dy="0.71em">50</text></g><g class="tick" opacity="1" transform="translate(420.5,0)"><line stroke="#000" y2="6"/><text fill="#000" y="9" dy="0.71em">60</text></g><g class="tick" opacity="1" transform="translate(490.5,0)"><line stroke="#000" y2="6"/><text fill="#000" y="9" dy="0.71em">70</text></g><g class="tick" opacity="1" transform="translate(560.5,0)"><line stroke="#000" y2="6"/><text fill="#000" y="9" dy="0.71em">80</text></g><g class="tick" opacity="1" transform="translate(630.5,0)"><line stroke="#000" y2="6"/><text fill="#000" y="9" dy="0.71em">90</text></g><g class="tick" opacity="1" transform="translate(700.5,0)"><line stroke="#000" y2="6"/><text fill="#000" y="9" dy="0.71em">100</text></g><g class="tick" opacity="1" transform="translate(770.5,0)"><line stroke="#000" y2="6"/><text fill="#000" y="9" dy="0.71em">110</text></g><g class="tick" opacity="1" transform="translate(840.5,0)"><line stroke="#000" y2="6"/><text fill="#000" y="9" dy="0.71em">120</text></g><g class="tick" opacity="1" transform="translate(910.5,0)"><line stroke="#000" y2="6"/><text fill="#000" y="9" dy="0.71em">130</text></g><g class="tick" opacity="1" transform="translate(980.5,0)"><line stroke="#000" y2="6"/><text fill="#000" y="9" dy="0.71em">140</text></g><g class="tick" opacity="1" transform="translate(1050.5,0)"><line stroke="#000" y2="6"/><text fill="#000" y="9" dy="0.71em">150</text></g><g class="tick" opacity="1" transform="translate(1120.5,0)"><line stroke="#000" y2="6"/><text fill="#000" y="9" dy="0.71em">160</text></g></g><text transform="translate(560 ,100)" style="text-anchor: middle; font-size: 12px;">Minutes</text><g class="gBin" transform="translate(714, 70)"><circle class="enter" cx="7" cy="-7" r="7"/></g><g class="gBin" transform="translate(728, 70)"><circle class="enter" cx="7" cy="-7" r="7"/></g><g class="gBin" transform="translate(742, 70)"><circle class="enter" cx="7" cy="-7" r="7"/></g><g class="gBin" transform="translate(756, 70)"><circle class="enter" cx="7" cy="-7" r="7"/><circle class="enter" cx="7" cy="-21" r="7"/></g><g class="gBin" transform="translate(770, 70)"><circle class="enter" cx="7" cy="-7" r="7"/><circle class="enter" cx="7" cy="-21" r="7"/></g><g class="gBin" transform="translate(784, 70)"><circle class="enter" cx="7" cy="-7" r="7"/><circle class="enter" cx="7" cy="-21" r="7"/><circle class="enter" cx="7" cy="-35" r="7"/></g><g class="gBin" transform="translate(798, 70)"><circle class="enter" cx="7" cy="-7" r="7"/><circle class="enter" cx="7" cy="-21" r="7"/><circle class="enter" cx="7" cy="-35" r="7"/></g><g class="gBin" transform="translate(812, 70)"><circle class="enter" cx="7" cy="-7" r="7"/><circle class="enter" cx="7" cy="-21" r="7"/><circle class="enter" cx="7" cy="-35" r="7"/><circle class="enter" cx="7" cy="-49" r="7"/></g><g class="gBin" transform="translate(826, 70)"><circle class="enter" cx="7" cy="-7" r="7"/><circle class="enter" cx="7" cy="-21" r="7"/><circle class="enter" cx="7" cy="-35" r="7"/><circle class="enter" cx="7" cy="-49" r="7"/></g><g class="gBin" transform="translate(840, 70)"><circle class="enter" cx="7" cy="-7" r="7"/><circle class="enter" cx="7" cy="-21" r="7"/><circle class="enter" cx="7" cy="-35" r="7"/><circle class="enter" cx="7" cy="-49" r="7"/></g><g class="gBin" transform="translate(854, 70)"><circle class="enter" cx="7" cy="-7" r="7"/><circle class="enter" cx="7" cy="-21" r="7"/><circle class="enter" cx="7" cy="-35" r="7"/><circle class="enter" cx="7" cy="-49" r="7"/></g><g class="gBin" transform="translate(868, 70)"><circle class="enter" cx="7" cy="-7" r="7"/><circle class="enter" cx="7" cy="-21" r="7"/><circle class="enter" cx="7" cy="-35" r="7"/><circle class="enter" cx="7" cy="-49" r="7"/></g><g class="gBin" transform="translate(882, 70)"><circle class="enter" cx="7" cy="-7" r="7"/><circle class="enter" cx="7" cy="-21" r="7"/><circle class="enter" cx="7" cy="-35" r="7"/><circle class="enter" cx="7" cy="-49" r="7"/></g><g class="gBin" transform="translate(896, 70)"><circle class="enter" cx="7" cy="-7" r="7"/><circle class="enter" cx="7" cy="-21" r="7"/><circle class="enter" cx="7" cy="-35" r="7"/></g><g class="gBin" transform="translate(910, 70)"><circle class="enter" cx="7" cy="-7" r="7"/><circle class="enter" cx="7" cy="-21" r="7"/></g><g class="gBin" transform="translate(924, 70)"><circle class="enter" cx="7" cy="-7" r="7"/><circle class="enter" cx="7" cy="-21" r="7"/></g><g class="gBin" transform="translate(938, 70)"><circle class="enter" cx="7" cy="-7" r="7"/><circle class="enter" cx="7" cy="-21" r="7"/></g><g class="gBin" transform="translate(952, 70)"><circle class="enter" cx="7" cy="-7" r="7"/></g><g class="gBin" transform="translate(966, 70)"><circle class="enter" cx="7" cy="-7" r="7"/></g><g class="gBin" transform="translate(980, 70)"><circle class="enter" cx="7" cy="-7" r="7"/></g><g class="gBin" transform="translate(994, 70)"><circle class="enter" cx="7" cy="-7" r="7"/></g></g></svg>