<svg xmlns="http://www.w3.org/2000/svg" width="970" height="54"><g transform="translate(30, 10)"><g class="axis axis--x" transform="translate(0,14)" fill="none" font-size="10" font-family="sans-serif" text-anchor="middle"><path class="domain" stroke="#000" d="M0.5,6V0.5H910.5V6"/><g class="tick" opacity="1" transform="translate(0.5,0)"><line stroke="#000" y2="6"/><text fill="#000" y="9" dy="0.71em">0</text></g><g class="tick" opacity="1" transform="translate(70.5,0)"><line stroke="#000" y2="6"/><text fill="#000" y="9" dy="0.71em">10</text></g><g class="tick" opacity="1" transform="translate(140.5,0)"><line stroke="#000" y2="6"/><text fill="#000" y="9" dy="0.71em">20</text></g><g class="tick" opacity="1" transform="translate(210.5,0)"><line stroke="#000" y2="6"/><text fill="#000" y="9" dy="0.71em">30</text></g><g class="tick" opacity="1" transform="translate(280.5,0)"><line stroke="#000" y2="6"/><text fill="#000" y="9" dy="0.71em">40</text></g><g class="tick" opacity="1" transform="translate(350.5,0)"><line stroke="#000" y2="6"/><text fill="#000" y="9" dy="0.71em">50</text></g><g class="tick" opacity="1" transform="translate(420.5,0)"><line stroke="#000" y2="6"/><text fill="#000" y="9" dy="0.71em">60</text></g><g class="tick" opacity="1" transform="translate(490.5,0)"><line stroke="#000" y2="6"/><text fill="#000" y="9" dy="0.71em">70</text></g><g class="tick" opacity="1" transform="translate(560.5,0)"><line stroke="#000" y2="6"/><text fill="#000" y="9" dy="0.71em">80</text></g><g class="tick" opacity="1" transform="translate(630.5,0)"><line stroke="#000" y2="6"/><text fill="#000" y="9" dy="0.71em">90</text></g><g class="tick" opacity="1" transform="translate(700.5,0)"><line stroke="#000" y2="6"/><text fill="#000" y="9" dy="0.71em">100</text></g><g class="tick" opacity="1" transform="translate(770.5,0)"><line stroke="#000" y2="6"/><text fill="#000" y="9" dy="0.71em">110</text></g><g class="tick" opacity="1" transform="translate(840.5,0)"><line stroke="#000" y2="6"/><text fill="#000" y="9" dy="0.71em">120</text></g><g class="tick" opacity="1" transform="translate(910.5,0)"><line stroke="#000" y2="6"/><text fill="#000" y="9" dy="0.71em">130</text></g></g><text transform="translate(455 ,44)" style="text-anchor: middle; font-size: 12px;">Minutes</text><g class="gBin" transform="translate(532, 14)"><circle class="enter" cx="7" cy="-7" r="7"/></g><g class="gBin" transform="translate(546, 14)"><circle class="enter" cx="7" cy="-7" r="7"/></g><g class="gBin" transform="translate(560, 14)"><circle class="enter" cx="7" cy="-7" r="7"/></g><g class="gBin" transform="translate(574, 14)"><circle class="enter" cx="7" cy="-7" r="7"/></g><g class="gBin" transform="translate(588, 14)"><circle class="enter" cx="7" cy="-7" r="7"/></g><g class="gBin" transform="translate(602, 14)"><circle class="enter" cx="7" cy="-7" r="7"/></g><g class="gBin" transform="translate(616, 14)"><circle class="enter" cx="7" cy="-7" r="7"/></g><g class="gBin" transform="translate(630, 14)"><circle class="enter" cx="7" cy="-7" r="7"/></g><g class="gBin" transform="translate(644, 14)"><circle class="enter" cx="7" cy="-7" r="7"/></g><g class="gBin" transform="translate(658, 14)"><circle class="enter" cx="7" cy="-7" r="7"/></g><g class="gBin" transform="translate(672, 14)"><circle class="enter" cx="7" cy="-7" r="7"/></g><g class="gBin" transform="translate(686, 14)"><circle class="enter" cx="7" cy="-7" r="7"/></g><g class="gBin" transform="translate(700, 14)"><circle class="enter" cx="7" cy="-7" r="7"/></g><g class="gBin" transform="translate(714, 14)"><circle class="enter" cx="7" cy="-7" r="7"/></g><g class="gBin" transform="translate(728, 14)"><circle class="enter" cx="7" cy="-7" r="7"/></g><g class="gBin" transform="translate(742, 14)"><circle class="enter" cx="7" cy="-7" r="7"/></g><g class="gBin" transform="translate(756, 14)"><circle class="enter" cx="7" cy="-7" r="7"/></g><g class="gBin" transform="translate(770, 14)"><circle class="enter" cx="7" cy="-7" r="7"/></g><g class="gBin" transform="translate(784, 14)"><circle class="enter" cx="7" cy="-7" r="7"/></g><g class="gBin" transform="translate(798, 14)"><circle class="enter" cx="7" cy="-7" r="7"/></g></g></svg>