<svg xmlns="http://www.w3.org/2000/svg" width="1670" height="68"><g transform="translate(30, 10)"><g class="axis axis--x" transform="translate(0,28)" fill="none" font-size="10" font-family="sans-serif" text-anchor="middle"><path class="domain" stroke="#000" d="M0.5,6V0.5H1610.5V6"/><g class="tick" opacity="1" transform="translate(0.5,0)"><line stroke="#000" y2="6"/><text fill="#000" y="9" dy="0.71em">0</text></g><g class="tick" opacity="1" transform="translate(70.5,0)"><line stroke="#000" y2="6"/><text fill="#000" y="9" dy="0.71em">10</text></g><g class="tick" opacity="1" transform="translate(140.5,0)"><line stroke="#000" y2="6"/><text fill="#000" y="9" dy="0.71em">20</text></g><g class="tick" opacity="1" transform="translate(210.5,0)"><line stroke="#000" y2="6"/><text fill="#000" y="9" dy="0.71em">30</text></g><g class="tick" opacity="1" transform="translate(280.5,0)"><line stroke="#000" y2="6"/><text fill="#000" y="9" dy="0.71em">40</text></g><g class="tick" opacity="1" transform="translate(350.5,0)"><line stroke="#000" y2="6"/><text fill="#000" y="9" dy="0.71em">50</text></g><g class="tick" opacity="1" transform="translate(420.5,0)"><line stroke="#000" y2="6"/><text fill="#000" y="9" dy="0.71em">60</text></g><g class="tick" opacity="1" transform="translate(490.5,0)"><line stroke="#000" y2="6"/><text fill="#000" y="9" dy="0.71em">70</text></g><g class="tick" opacity="1" transform="translate(560.5,0)"><line stroke="#000" y2="6"/><text fill="#000" y="9" dy="0.71em">80</text></g><g class="tick" opacity="1" transform="translate(630.5,0)"><line stroke="#000" y2="6"/><text fill="#000" y="9" dy="0.71em">90</text></g><g class="tick" opacity="1" transform="translate(700.5,0)"><line stroke="#000" y2="6"/><text fill="#000" y="9" dy="0.71em">100</text></g><g class="tick" opacity="1" transform="translate(770.5,0)"><line stroke="#000" y2="6"/><text fill="#000" y="9" dy="0.71em">110</text></g><g class="tick" opacity="1" transform="translate(840.5,0)"><line stroke="#000" y2="6"/><text fill="#000" y="9" dy="0.71em">120</text></g><g class="tick" opacity="1" transform="translate(910.5,0)"><line stroke="#000" y2="6"/><text fill="#000" y="9" dy="0.71em">130</text></g><g class="tick" opacity="1" transform="translate(980.5,0)"><line stroke="#000" y2="6"/><text fill="#000" y="9" dy="0.71em">140</text></g><g class="tick" opacity="1" transform="translate(1050.5,0)"><line stroke="#000" y2="6"/><text fill="#000" y="9" dy="0.71em">150</text></g><g class="tick" opacity="1" transform="translate(1120.5,0)"><line stroke="#000" y2="6"/><text fill="#000" y="9" dy="0.71em">160</text></g><g class="tick" opacity="1" transform="translate(1190.5,0)"><line stroke="#000" y2="6"/><text fill="#000" y="9" dy="0.71em">170</text></g><g class="tick" opacity="1" transform="translate(1260.5,0)"><line stroke="#000" y2="6"/><text fill="#000" y="9" dy="0.71em">180</text></g><g class="tick" opacity="1" transform="translate(1330.5,0)"><line stroke="#000" y2="6"/><text fill="#000" y="9" dy="0.71em">190</text></g><g class="tick" opacity="1" transform="translate(1400.5,0)"><line stroke="#000" y2="6"/><text fill="#000" y="9" dy="0.71em">200</text></g><g class="tick" opacity="1" transform="translate(1470.5,0)"><line stroke="#000" y2="6"/><text fill="#000" y="9" dy="0.71em">210</text></g><g class="tick" opacity="1" transform="translate(1540.5,0)"><line stroke="#000" y2="6"/><text fill="#000" y="9" dy="0.71em">220</text></g><g class="tick" opacity="1" transform="translate(1610.5,0)"><line stroke="#000" y2="6"/><text fill="#000" y="9" dy="0.71em">230</text></g></g><text transform="translate(805 ,58)" style="text-anchor: middle; font-size: 12px;">Minutes</text><g class="gBin" transform="translate(938, 28)"><circle class="enter" cx="7" cy="-7" r="7"/></g><g class="gBin" transform="translate(952, 28)"><circle class="enter" cx="7" cy="-7" r="7"/></g><g class="gBin" transform="translate(966, 28)"><circle class="enter" cx="7" cy="-7" r="7"/></g><g class="gBin" transform="translate(980, 28)"><circle class="enter" cx="7" cy="-7" r="7"/></g><g class="gBin" transform="translate(994, 28)"><circle class="enter" cx="7" cy="-7" r="7"/></g><g class="gBin" transform="translate(1008, 28)"><circle class="enter" cx="7" cy="-7" r="7"/></g><g class="gBin" transform="translate(1022, 28)"><circle class="enter" cx="7" cy="-7" r="7"/></g><g class="gBin" transform="translate(1036, 28)"><circle class="enter" cx="7" cy="-7" r="7"/></g><g class="gBin" transform="translate(1050, 28)"><circle class="enter" cx="7" cy="-7" r="7"/></g><g class="gBin" transform="translate(1064, 28)"><circle class="enter" cx="7" cy="-7" r="7"/></g><g class="gBin" transform="translate(1078, 28)"><circle class="enter" cx="7" cy="-7" r="7"/></g><g class="gBin" transform="translate(1092, 28)"><circle class="enter" cx="7" cy="-7" r="7"/><circle class="enter" cx="7" cy="-21" r="7"/></g><g class="gBin" transform="translate(1106, 28)"><circle class="enter" cx="7" cy="-7" r="7"/><circle class="enter" cx="7" cy="-21" r="7"/></g><g class="gBin" transform="translate(1120, 28)"><circle class="enter" cx="7" cy="-7" r="7"/><circle class="enter" cx="7" cy="-21" r="7"/></g><g class="gBin" transform="translate(1134, 28)"><circle class="enter" cx="7" cy="-7" r="7"/><circle class="enter" cx="7" cy="-21" r="7"/></g><g class="gBin" transform="translate(1148, 28)"><circle class="enter" cx="7" cy="-7" r="7"/><circle class="enter" cx="7" cy="-21" r="7"/></g><g class="gBin" transform="translate(1162, 28)"><circle class="enter" cx="7" cy="-7" r="7"/><circle class="enter" cx="7" cy="-21" r="7"/></g><g class="gBin" transform="translate(1176, 28)"><circle class="enter" cx="7" cy="-7" r="7"/><circle class="enter" cx="7" cy="-21" r="7"/></g><g class="gBin" transform="translate(1190, 28)"><circle class="enter" cx="7" cy="-7" r="7"/><circle class="enter" cx="7" cy="-21" r="7"/></g><g class="gBin" transform="translate(1204, 28)"><circle class="enter" cx="7" cy="-7" r="7"/><circle class="enter" cx="7" cy="-21" r="7"/></g><g class="gBin" transform="translate(1218, 28)"><circle class="enter" cx="7" cy="-7" r="7"/><circle class="enter" cx="7" cy="-21" r="7"/></g><g class="gBin" transform="translate(1232, 28)"><circle class="enter" cx="7" cy="-7" r="7"/><circle class="enter" cx="7" cy="-21" r="7"/></g><g class="gBin" transform="translate(1246, 28)"><circle class="enter" cx="7" cy="-7" r="7"/></g><g class="gBin" transform="translate(1260, 28)"><circle class="enter" cx="7" cy="-7" r="7"/></g><g class="gBin" transform="translate(1274, 28)"><circle class="enter" cx="7" cy="-7" r="7"/></g><g class="gBin" transform="translate(1288, 28)"><circle class="enter" cx="7" cy="-7" r="7"/></g><g class="gBin" transform="translate(1302, 28)"><circle class="enter" cx="7" cy="-7" r="7"/></g><g class="gBin" transform="translate(1316, 28)"><circle class="enter" cx="7" cy="-7" r="7"/></g><g class="gBin" transform="translate(1330, 28)"><circle class="enter" cx="7" cy="-7" r="7"/></g><g class="gBin" transform="translate(1344, 28)"><circle class="enter" cx="7" cy="-7" r="7"/></g><g class="gBin" transform="translate(1358, 28)"><circle class="enter" cx="7" cy="-7" r="7"/></g><g class="gBin" transform="translate(1372, 28)"><circle class="enter" cx="7" cy="-7" r="7"/></g><g class="gBin" transform="translate(1386, 28)"><circle class="enter" cx="7" cy="-7" r="7"/></g><g class="gBin" transform="translate(1400, 28)"><circle class="enter" cx="7" cy="-7" r="7"/></g><g class="gBin" transform="translate(1414, 28)"><circle class="enter" cx="7" cy="-7" r="7"/></g><g class="gBin" transform="translate(1428, 28)"><circle class="enter" cx="7" cy="-7" r="7"/></g><g class="gBin" transform="translate(1442, 28)"><circle class="enter" cx="7" cy="-7" r="7"/></g><g class="gBin" transform="translate(1456, 28)"><circle class="enter" cx="7" cy="-7" r="7"/></g><g class="gBin" transform="translate(1470, 28)"><circle class="enter" cx="7" cy="-7" r="7"/></g></g></svg>