<svg xmlns="http://www.w3.org/2000/svg" width="620" height="68"><g transform="translate(30, 10)"><g class="axis axis--x" transform="translate(0,28)" fill="none" font-size="10" font-family="sans-serif" text-anchor="middle"><path class="domain" stroke="#000" d="M0.5,6V0.5H560.5V6"/><g class="tick" opacity="1" transform="translate(0.5,0)"><line stroke="#000" y2="6"/><text fill="#000" y="9" dy="0.71em">0</text></g><g class="tick" opacity="1" transform="translate(70.5,0)"><line stroke="#000" y2="6"/><text fill="#000" y="9" dy="0.71em">10</text></g><g class="tick" opacity="1" transform="translate(140.5,0)"><line stroke="#000" y2="6"/><text fill="#000" y="9" dy="0.71em">20</text></g><g class="tick" opacity="1" transform="translate(210.5,0)"><line stroke="#000" y2="6"/><text fill="#000" y="9" dy="0.71em">30</text></g><g class="tick" opacity="1" transform="translate(280.5,0)"><line stroke="#000" y2="6"/><text fill="#000" y="9" dy="0.71em">40</text></g><g class="tick" opacity="1" transform="translate(350.5,0)"><line stroke="#000" y2="6"/><text fill="#000" y="9" dy="0.71em">50</text></g><g class="tick" opacity="1" transform="translate(420.5,0)"><line stroke="#000" y2="6"/><text fill="#000" y="9" dy="0.71em">60</text></g><g class="tick" opacity="1" transform="translate(490.5,0)"><line stroke="#000" y2="6"/><text fill="#000" y="9" dy="0.71em">70</text></g><g class="tick" opacity="1" transform="translate(560.5,0)"><line stroke="#000" y2="6"/><text fill="#000" y="9" dy="0.71em">80</text></g></g><text transform="translate(280 ,58)" style="text-anchor: middle; font-size: 12px;">Minutes</text><g class="gBin" transform="translate(280, 28)"><circle class="enter" cx="7" cy="-7" r="7"/></g><g class="gBin" transform="translate(294, 28)"><circle class="enter" cx="7" cy="-7" r="7"/></g><g class="gBin" transform="translate(308, 28)"><circle class="enter" cx="7" cy="-7" r="7"/></g><g class="gBin" transform="translate(322, 28)"><circle class="enter" cx="7" cy="-7" r="7"/></g><g class="gBin" transform="translate(336, 28)"><circle class="enter" cx="7" cy="-7" r="7"/></g><g class="gBin" transform="translate(350, 28)"><circle class="enter" cx="7" cy="-7" r="7"/><circle class="enter" cx="7" cy="-21" r="7"/></g><g class="gBin" transform="translate(364, 28)"><circle class="enter" cx="7" cy="-7" r="7"/><circle class="enter" cx="7" cy="-21" r="7"/></g><g class="gBin" transform="translate(378, 28)"><circle class="enter" cx="7" cy="-7" r="7"/><circle class="enter" cx="7" cy="-21" r="7"/></g><g class="gBin" transform="translate(392, 28)"><circle class="enter" cx="7" cy="-7" r="7"/><circle class="enter" cx="7" cy="-21" r="7"/></g><g class="gBin" transform="translate(406, 28)"><circle class="enter" cx="7" cy="-7" r="7"/><circle class="enter" cx="7" cy="-21" r="7"/></g><g class="gBin" transform="translate(420, 28)"><circle class="enter" cx="7" cy="-7" r="7"/></g><g class="gBin" transform="translate(434, 28)"><circle class="enter" cx="7" cy="-7" r="7"/></g><g class="gBin" transform="translate(448, 28)"><circle class="enter" cx="7" cy="-7" r="7"/></g><g class="gBin" transform="translate(462, 28)"><circle class="enter" cx="7" cy="-7" r="7"/></g><g class="gBin" transform="translate(476, 28)"><circle class="enter" cx="7" cy="-7" r="7"/></g></g></svg>