<svg xmlns="http://www.w3.org/2000/svg" width="760" height="110"><g transform="translate(30, 10)"><g class="axis axis--x" transform="translate(0,70)" fill="none" font-size="10" font-family="sans-serif" text-anchor="middle"><path class="domain" stroke="#000" d="M0.5,6V0.5H700.5V6"/><g class="tick" opacity="1" transform="translate(0.5,0)"><line stroke="#000" y2="6"/><text fill="#000" y="9" dy="0.71em">0</text></g><g class="tick" opacity="1" transform="translate(70.5,0)"><line stroke="#000" y2="6"/><text fill="#000" y="9" dy="0.71em">10</text></g><g class="tick" opacity="1" transform="translate(140.5,0)"><line stroke="#000" y2="6"/><text fill="#000" y="9" dy="0.71em">20</text></g><g class="tick" opacity="1" transform="translate(210.5,0)"><line stroke="#000" y2="6"/><text fill="#000" y="9" dy="0.71em">30</text></g><g class="tick" opacity="1" transform="translate(280.5,0)"><line stroke="#000" y2="6"/><text fill="#000" y="9" dy="0.71em">40</text></g><g class="tick" opacity="1" transform="translate(350.5,0)"><line stroke="#000" y2="6"/><text fill="#000" y="9" dy="0.71em">50</text></g><g class="tick" opacity="1" transform="translate(420.5,0)"><line stroke="#000" y2="6"/><text fill="#000" y="9" dy="0.71em">60</text></g><g class="tick" opacity="1" transform="translate(490.5,0)"><line stroke="#000" y2="6"/><text fill="#000" y="9" dy="0.71em">70</text></g><g class="tick" opacity="1" transform="translate(560.5,0)"><line stroke="#000" y2="6"/><text fill="#000" y="9" dy="0.71em">80</text></g><g class="tick" opacity="1" transform="translate(630.5,0)"><line stroke="#000" y2="6"/><text fill="#000" y="9" dy="0.71em">90</text></g><g class="tick" opacity="1" transform="translate(700.5,0)"><line stroke="#000" y2="6"/><text fill="#000" y="9" dy="0.71em">100</text></g></g><text transform="translate(350 ,100)" style="text-anchor: middle; font-size: 12px;">Minutes</text><g class="gBin" transform="translate(294, 70)"><circle class="enter" cx="7" cy="-7" r="7"/></g><g class="gBin" transform="translate(308, 70)"><circle class="enter" cx="7" cy="-7" r="7"/></g><g class="gBin" transform="translate(322, 70)"><circle class="enter" cx="7" cy="-7" r="7"/></g><g class="gBin" transform="translate(336, 70)"><circle class="enter" cx="7" cy="-7" r="7"/><circle class="enter" cx="7" cy="-21" r="7"/></g><g class="gBin" transform="translate(350, 70)"><circle class="enter" cx="7" cy="-7" r="7"/><circle class="enter" cx="7" cy="-21" r="7"/><circle class="enter" cx="7" cy="-35" r="7"/></g><g class="gBin" transform="translate(364, 70)"><circle class="enter" cx="7" cy="-7" r="7"/><circle class="enter" cx="7" cy="-21" r="7"/><circle class="enter" cx="7" cy="-35" r="7"/></g><g class="gBin" transform="translate(378, 70)"><circle class="enter" cx="7" cy="-7" r="7"/><circle class="enter" cx="7" cy="-21" r="7"/><circle class="enter" cx="7" cy="-35" r="7"/><circle class="enter" cx="7" cy="-49" r="7"/></g><g class="gBin" transform="translate(392, 70)"><circle class="enter" cx="7" cy="-7" r="7"/><circle class="enter" cx="7" cy="-21" r="7"/><circle class="enter" cx="7" cy="-35" r="7"/><circle class="enter" cx="7" cy="-49" r="7"/></g><g class="gBin" transform="translate(406, 70)"><circle class="enter" cx="7" cy="-7" r="7"/><circle class="enter" cx="7" cy="-21" r="7"/><circle class="enter" cx="7" cy="-35" r="7"/><circle class="enter" cx="7" cy="-49" r="7"/></g><g class="gBin" transform="translate(420, 70)"><circle class="enter" cx="7" cy="-7" r="7"/><circle class="enter" cx="7" cy="-21" r="7"/><circle class="enter" cx="7" cy="-35" r="7"/><circle class="enter" cx="7" cy="-49" r="7"/></g><g class="gBin" transform="translate(434, 70)"><circle class="enter" cx="7" cy="-7" r="7"/><circle class="enter" cx="7" cy="-21" r="7"/><circle class="enter" cx="7" cy="-35" r="7"/><circle class="enter" cx="7" cy="-49" r="7"/></g><g class="gBin" transform="translate(448, 70)"><circle class="enter" cx="7" cy="-7" r="7"/><circle class="enter" cx="7" cy="-21" r="7"/><circle class="enter" cx="7" cy="-35" r="7"/><circle class="enter" cx="7" cy="-49" r="7"/></g><g class="gBin" transform="translate(462, 70)"><circle class="enter" cx="7" cy="-7" r="7"/><circle class="enter" cx="7" cy="-21" r="7"/><circle class="enter" cx="7" cy="-35" r="7"/></g><g class="gBin" transform="translate(476, 70)"><circle class="enter" cx="7" cy="-7" r="7"/><circle class="enter" cx="7" cy="-21" r="7"/><circle class="enter" cx="7" cy="-35" r="7"/></g><g class="gBin" transform="translate(490, 70)"><circle class="enter" cx="7" cy="-7" r="7"/><circle class="enter" cx="7" cy="-21" r="7"/></g><g class="gBin" transform="translate(504, 70)"><circle class="enter" cx="7" cy="-7" r="7"/><circle class="enter" cx="7" cy="-21" r="7"/></g><g class="gBin" transform="translate(518, 70)"><circle class="enter" cx="7" cy="-7" r="7"/></g><g class="gBin" transform="translate(532, 70)"><circle class="enter" cx="7" cy="-7" r="7"/></g><g class="gBin" transform="translate(546, 70)"><circle class="enter" cx="7" cy="-7" r="7"/></g><g class="gBin" transform="translate(560, 70)"><circle class="enter" cx="7" cy="-7" r="7"/></g><g class="gBin" transform="translate(574, 70)"><circle class="enter" cx="7" cy="-7" r="7"/></g></g></svg>