<svg xmlns="http://www.w3.org/2000/svg" width="480" height="96"><g transform="translate(30, 10)"><g class="axis axis--x" transform="translate(0,56)" fill="none" font-size="10" font-family="sans-serif" text-anchor="middle"><path class="domain" stroke="#000" d="M0.5,6V0.5H420.5V6"/><g class="tick" opacity="1" transform="translate(0.5,0)"><line stroke="#000" y2="6"/><text fill="#000" y="9" dy="0.71em">0</text></g><g class="tick" opacity="1" transform="translate(70.5,0)"><line stroke="#000" y2="6"/><text fill="#000" y="9" dy="0.71em">10</text></g><g class="tick" opacity="1" transform="translate(140.5,0)"><line stroke="#000" y2="6"/><text fill="#000" y="9" dy="0.71em">20</text></g><g class="tick" opacity="1" transform="translate(210.5,0)"><line stroke="#000" y2="6"/><text fill="#000" y="9" dy="0.71em">30</text></g><g class="tick" opacity="1" transform="translate(280.5,0)"><line stroke="#000" y2="6"/><text fill="#000" y="9" dy="0.71em">40</text></g><g class="tick" opacity="1" transform="translate(350.5,0)"><line stroke="#000" y2="6"/><text fill="#000" y="9" dy="0.71em">50</text></g><g class="tick" opacity="1" transform="translate(420.5,0)"><line stroke="#000" y2="6"/><text fill="#000" y="9" dy="0.71em">60</text></g></g><text transform="translate(210 ,86)" style="text-anchor: middle; font-size: 12px;">Minutes</text><g class="gBin" transform="translate(154, 56)"><circle class="enter" cx="7" cy="-7" r="7"/></g><g class="gBin" transform="translate(168, 56)"><circle class="enter" cx="7" cy="-7" r="7"/><circle class="enter" cx="7" cy="-21" r="7"/><circle class="enter" cx="7" cy="-35" r="7"/></g><g class="gBin" transform="translate(182, 56)"><circle class="enter" cx="7" cy="-7" r="7"/><circle class="enter" cx="7" cy="-21" r="7"/><circle class="enter" cx="7" cy="-35" r="7"/></g><g class="gBin" transform="translate(196, 56)"><circle class="enter" cx="7" cy="-7" r="7"/><circle class="enter" cx="7" cy="-21" r="7"/><circle class="enter" cx="7" cy="-35" r="7"/></g><g class="gBin" transform="translate(210, 56)"><circle class="enter" cx="7" cy="-7" r="7"/><circle class="enter" cx="7" cy="-21" r="7"/><circle class="enter" cx="7" cy="-35" r="7"/></g><g class="gBin" transform="translate(224, 56)"><circle class="enter" cx="7" cy="-7" r="7"/><circle class="enter" cx="7" cy="-21" r="7"/></g><g class="gBin" transform="translate(238, 56)"><circle class="enter" cx="7" cy="-7" r="7"/><circle class="enter" cx="7" cy="-21" r="7"/></g><g class="gBin" transform="translate(252, 56)"><circle class="enter" cx="7" cy="-7" r="7"/></g><g class="gBin" transform="translate(266, 56)"><circle class="enter" cx="7" cy="-7" r="7"/></g><g class="gBin" transform="translate(280, 56)"><circle class="enter" cx="7" cy="-7" r="7"/></g></g></svg>