<svg xmlns="http://www.w3.org/2000/svg" width="200" height="488"><g transform="translate(30, 10)"><g class="axis axis--x" transform="translate(0,448)" fill="none" font-size="10" font-family="sans-serif" text-anchor="middle"><path class="domain" stroke="#000" d="M0.5,6V0.5H140.5V6"/><g class="tick" opacity="1" transform="translate(0.5,0)"><line stroke="#000" y2="6"/><text fill="#000" y="9" dy="0.71em">0</text></g><g class="tick" opacity="1" transform="translate(35.5,0)"><line stroke="#000" y2="6"/><text fill="#000" y="9" dy="0.71em">5</text></g><g class="tick" opacity="1" transform="translate(70.5,0)"><line stroke="#000" y2="6"/><text fill="#000" y="9" dy="0.71em">10</text></g><g class="tick" opacity="1" transform="translate(105.5,0)"><line stroke="#000" y2="6"/><text fill="#000" y="9" dy="0.71em">15</text></g><g class="tick" opacity="1" transform="translate(140.5,0)"><line stroke="#000" y2="6"/><text fill="#000" y="9" dy="0.71em">20</text></g></g><text transform="translate(70 ,478)" style="text-anchor: middle; font-size: 12px;">Minutes</text><g class="gBin" transform="translate(0, 448)"><circle class="enter" cx="7" cy="-7" r="7"/><circle class="enter" cx="7" cy="-21" r="7"/><circle class="enter" cx="7" cy="-35" r="7"/><circle class="enter" cx="7" cy="-49" r="7"/><circle class="enter" cx="7" cy="-63" r="7"/><circle class="enter" cx="7" cy="-77" r="7"/><circle class="enter" cx="7" cy="-91" r="7"/><circle class="enter" cx="7" cy="-105" r="7"/><circle class="enter" cx="7" cy="-119" r="7"/><circle class="enter" cx="7" cy="-133" r="7"/><circle class="enter" cx="7" cy="-147" r="7"/><circle class="enter" cx="7" cy="-161" r="7"/><circle class="enter" cx="7" cy="-175" r="7"/><circle class="enter" cx="7" cy="-189" r="7"/><circle class="enter" cx="7" cy="-203" r="7"/><circle class="enter" cx="7" cy="-217" r="7"/><circle class="enter" cx="7" cy="-231" r="7"/><circle class="enter" cx="7" cy="-245" r="7"/><circle class="enter" cx="7" cy="-259" r="7"/><circle class="enter" cx="7" cy="-273" r="7"/><circle class="enter" cx="7" cy="-287" r="7"/><circle class="enter" cx="7" cy="-301" r="7"/><circle class="enter" cx="7" cy="-315" r="7"/><circle class="enter" cx="7" cy="-329" r="7"/><circle class="enter" cx="7" cy="-343" r="7"/><circle class="enter" cx="7" cy="-357" r="7"/><circle class="enter" cx="7" cy="-371" r="7"/><circle class="enter" cx="7" cy="-385" r="7"/><circle class="enter" cx="7" cy="-399" r="7"/><circle class="enter" cx="7" cy="-413" r="7"/><circle class="enter" cx="7" cy="-427" r="7"/><circle class="enter" cx="7" cy="-441" r="7"/></g><g class="gBin" transform="translate(14, 448)"><circle class="enter" cx="7" cy="-7" r="7"/><circle class="enter" cx="7" cy="-21" r="7"/><circle class="enter" cx="7" cy="-35" r="7"/><circle class="enter" cx="7" cy="-49" r="7"/><circle class="enter" cx="7" cy="-63" r="7"/><circle class="enter" cx="7" cy="-77" r="7"/><circle class="enter" cx="7" cy="-91" r="7"/><circle class="enter" cx="7" cy="-105" r="7"/><circle class="enter" cx="7" cy="-119" r="7"/></g><g class="gBin" transform="translate(28, 448)"><circle class="enter" cx="7" cy="-7" r="7"/><circle class="enter" cx="7" cy="-21" r="7"/><circle class="enter" cx="7" cy="-35" r="7"/><circle class="enter" cx="7" cy="-49" r="7"/><circle class="enter" cx="7" cy="-63" r="7"/></g><g class="gBin" transform="translate(42, 448)"><circle class="enter" cx="7" cy="-7" r="7"/><circle class="enter" cx="7" cy="-21" r="7"/><circle class="enter" cx="7" cy="-35" r="7"/></g><g class="gBin" transform="translate(56, 448)"><circle class="enter" cx="7" cy="-7" r="7"/></g></g></svg>