<svg xmlns="http://www.w3.org/2000/svg" width="830" height="68"><g transform="translate(30, 10)"><g class="axis axis--x" transform="translate(0,28)" fill="none" font-size="10" font-family="sans-serif" text-anchor="middle"><path class="domain" stroke="#000" d="M0.5,6V0.5H770.5V6"/><g class="tick" opacity="1" transform="translate(0.5,0)"><line stroke="#000" y2="6"/><text fill="#000" y="9" dy="0.71em">0</text></g><g class="tick" opacity="1" transform="translate(70.5,0)"><line stroke="#000" y2="6"/><text fill="#000" y="9" dy="0.71em">10</text></g><g class="tick" opacity="1" transform="translate(140.5,0)"><line stroke="#000" y2="6"/><text fill="#000" y="9" dy="0.71em">20</text></g><g class="tick" opacity="1" transform="translate(210.5,0)"><line stroke="#000" y2="6"/><text fill="#000" y="9" dy="0.71em">30</text></g><g class="tick" opacity="1" transform="translate(280.5,0)"><line stroke="#000" y2="6"/><text fill="#000" y="9" dy="0.71em">40</text></g><g class="tick" opacity="1" transform="translate(350.5,0)"><line stroke="#000" y2="6"/><text fill="#000" y="9" dy="0.71em">50</text></g><g class="tick" opacity="1" transform="translate(420.5,0)"><line stroke="#000" y2="6"/><text fill="#000" y="9" dy="0.71em">60</text></g><g class="tick" opacity="1" transform="translate(490.5,0)"><line stroke="#000" y2="6"/><text fill="#000" y="9" dy="0.71em">70</text></g><g class="tick" opacity="1" transform="translate(560.5,0)"><line stroke="#000" y2="6"/><text fill="#000" y="9" dy="0.71em">80</text></g><g class="tick" opacity="1" transform="translate(630.5,0)"><line stroke="#000" y2="6"/><text fill="#000" y="9" dy="0.71em">90</text></g><g class="tick" opacity="1" transform="translate(700.5,0)"><line stroke="#000" y2="6"/><text fill="#000" y="9" dy="0.71em">100</text></g><g class="tick" opacity="1" transform="translate(770.5,0)"><line stroke="#000" y2="6"/><text fill="#000" y="9" dy="0.71em">110</text></g></g><text transform="translate(385 ,58)" style="text-anchor: middle; font-size: 12px;">Minutes</text><g class="gBin" transform="translate(364, 28)"><circle class="enter" cx="7" cy="-7" r="7"/></g><g class="gBin" transform="translate(378, 28)"><circle class="enter" cx="7" cy="-7" r="7"/></g><g class="gBin" transform="translate(392, 28)"><circle class="enter" cx="7" cy="-7" r="7"/></g><g class="gBin" transform="translate(406, 28)"><circle class="enter" cx="7" cy="-7" r="7"/></g><g class="gBin" transform="translate(420, 28)"><circle class="enter" cx="7" cy="-7" r="7"/></g><g class="gBin" transform="translate(434, 28)"><circle class="enter" cx="7" cy="-7" r="7"/></g><g class="gBin" transform="translate(448, 28)"><circle class="enter" cx="7" cy="-7" r="7"/></g><g class="gBin" transform="translate(462, 28)"><circle class="enter" cx="7" cy="-7" r="7"/></g><g class="gBin" transform="translate(476, 28)"><circle class="enter" cx="7" cy="-7" r="7"/></g><g class="gBin" transform="translate(490, 28)"><circle class="enter" cx="7" cy="-7" r="7"/></g><g class="gBin" transform="translate(504, 28)"><circle class="enter" cx="7" cy="-7" r="7"/></g><g class="gBin" transform="translate(518, 28)"><circle class="enter" cx="7" cy="-7" r="7"/></g><g class="gBin" transform="translate(532, 28)"><circle class="enter" cx="7" cy="-7" r="7"/></g><g class="gBin" transform="translate(546, 28)"><circle class="enter" cx="7" cy="-7" r="7"/></g><g class="gBin" transform="translate(560, 28)"><circle class="enter" cx="7" cy="-7" r="7"/></g><g class="gBin" transform="translate(574, 28)"><circle class="enter" cx="7" cy="-7" r="7"/></g><g class="gBin" transform="translate(588, 28)"><circle class="enter" cx="7" cy="-7" r="7"/></g><g class="gBin" transform="translate(602, 28)"><circle class="enter" cx="7" cy="-7" r="7"/></g><g class="gBin" transform="translate(616, 28)"><circle class="enter" cx="7" cy="-7" r="7"/></g><g class="gBin" transform="translate(630, 28)"><circle class="enter" cx="7" cy="-7" r="7"/></g></g></svg>