<svg xmlns="http://www.w3.org/2000/svg" width="410" height="208"><g transform="translate(30, 10)"><g class="axis axis--x" transform="translate(0,168)" fill="none" font-size="10" font-family="sans-serif" text-anchor="middle"><path class="domain" stroke="#000" d="M0.5,6V0.5H350.5V6"/><g class="tick" opacity="1" transform="translate(0.5,0)"><line stroke="#000" y2="6"/><text fill="#000" y="9" dy="0.71em">0</text></g><g class="tick" opacity="1" transform="translate(70.5,0)"><line stroke="#000" y2="6"/><text fill="#000" y="9" dy="0.71em">10</text></g><g class="tick" opacity="1" transform="translate(140.5,0)"><line stroke="#000" y2="6"/><text fill="#000" y="9" dy="0.71em">20</text></g><g class="tick" opacity="1" transform="translate(210.5,0)"><line stroke="#000" y2="6"/><text fill="#000" y="9" dy="0.71em">30</text></g><g class="tick" opacity="1" transform="translate(280.5,0)"><line stroke="#000" y2="6"/><text fill="#000" y="9" dy="0.71em">40</text></g><g class="tick" opacity="1" transform="translate(350.5,0)"><line stroke="#000" y2="6"/><text fill="#000" y="9" dy="0.71em">50</text></g></g><text transform="translate(175 ,198)" style="text-anchor: middle; font-size: 12px;">Minutes</text><g class="gBin" transform="translate(140, 168)"><circle class="enter" cx="7" cy="-7" r="7"/></g><g class="gBin" transform="translate(154, 168)"><circle class="enter" cx="7" cy="-7" r="7"/><circle class="enter" cx="7" cy="-21" r="7"/></g><g class="gBin" transform="translate(168, 168)"><circle class="enter" cx="7" cy="-7" r="7"/><circle class="enter" cx="7" cy="-21" r="7"/><circle class="enter" cx="7" cy="-35" r="7"/><circle class="enter" cx="7" cy="-49" r="7"/><circle class="enter" cx="7" cy="-63" r="7"/></g><g class="gBin" transform="translate(182, 168)"><circle class="enter" cx="7" cy="-7" r="7"/><circle class="enter" cx="7" cy="-21" r="7"/><circle class="enter" cx="7" cy="-35" r="7"/><circle class="enter" cx="7" cy="-49" r="7"/><circle class="enter" cx="7" cy="-63" r="7"/><circle class="enter" cx="7" cy="-77" r="7"/><circle class="enter" cx="7" cy="-91" r="7"/><circle class="enter" cx="7" cy="-105" r="7"/><circle class="enter" cx="7" cy="-119" r="7"/></g><g class="gBin" transform="translate(196, 168)"><circle class="enter" cx="7" cy="-7" r="7"/><circle class="enter" cx="7" cy="-21" r="7"/><circle class="enter" cx="7" cy="-35" r="7"/><circle class="enter" cx="7" cy="-49" r="7"/><circle class="enter" cx="7" cy="-63" r="7"/><circle class="enter" cx="7" cy="-77" r="7"/><circle class="enter" cx="7" cy="-91" r="7"/><circle class="enter" cx="7" cy="-105" r="7"/><circle class="enter" cx="7" cy="-119" r="7"/><circle class="enter" cx="7" cy="-133" r="7"/><circle class="enter" cx="7" cy="-147" r="7"/><circle class="enter" cx="7" cy="-161" r="7"/></g><g class="gBin" transform="translate(210, 168)"><circle class="enter" cx="7" cy="-7" r="7"/><circle class="enter" cx="7" cy="-21" r="7"/><circle class="enter" cx="7" cy="-35" r="7"/><circle class="enter" cx="7" cy="-49" r="7"/><circle class="enter" cx="7" cy="-63" r="7"/><circle class="enter" cx="7" cy="-77" r="7"/><circle class="enter" cx="7" cy="-91" r="7"/><circle class="enter" cx="7" cy="-105" r="7"/><circle class="enter" cx="7" cy="-119" r="7"/><circle class="enter" cx="7" cy="-133" r="7"/></g><g class="gBin" transform="translate(224, 168)"><circle class="enter" cx="7" cy="-7" r="7"/><circle class="enter" cx="7" cy="-21" r="7"/><circle class="enter" cx="7" cy="-35" r="7"/><circle class="enter" cx="7" cy="-49" r="7"/><circle class="enter" cx="7" cy="-63" r="7"/><circle class="enter" cx="7" cy="-77" r="7"/></g><g class="gBin" transform="translate(238, 168)"><circle class="enter" cx="7" cy="-7" r="7"/><circle class="enter" cx="7" cy="-21" r="7"/><circle class="enter" cx="7" cy="-35" r="7"/></g><g class="gBin" transform="translate(252, 168)"><circle class="enter" cx="7" cy="-7" r="7"/></g><g class="gBin" transform="translate(266, 168)"><circle class="enter" cx="7" cy="-7" r="7"/></g></g></svg>